<?xml version="1.0" standalone="no"?>
<!DOCTYPE svg PUBLIC "-//W3C//DTD SVG 20010904//EN"
 "http://www.w3.org/TR/2001/REC-SVG-20010904/DTD/svg10.dtd">
<svg version="1.0" xmlns="http://www.w3.org/2000/svg"
 width="1024.000000pt" height="1013.000000pt" viewBox="0 0 1024.000000 1013.000000"
 preserveAspectRatio="xMidYMid meet">

<g transform="translate(0.000000,1013.000000) scale(0.100000,-0.100000)"
fill="#2299dd" stroke="none">
<path d="M2575 9420 c-92 -7 -196 -26 -270 -49 -85 -26 -270 -117 -330 -163
-211 -160 -348 -318 -434 -503 -67 -142 -69 -147 -85 -205 -33 -122 -41 -198
-40 -375 0 -181 13 -283 49 -394 19 -56 21 -62 76 -176 91 -191 255 -378 441
-503 126 -85 272 -151 414 -186 145 -37 467 -37 619 0 80 20 241 82 309 120
36 20 46 31 46 51 0 21 2 24 15 13 8 -7 15 -21 15 -30 0 -10 4 -20 8 -22 4 -1
36 -61 71 -133 34 -71 69 -142 77 -157 8 -14 14 -33 14 -42 0 -9 4 -16 9 -16
5 0 12 -14 16 -30 6 -28 24 -73 46 -112 5 -10 9 -25 9 -33 0 -8 9 -32 20 -52
11 -21 20 -45 20 -55 0 -9 5 -20 10 -23 6 -3 10 -21 10 -40 0 -18 5 -35 11
-37 5 -2 12 -19 15 -38 4 -19 10 -42 15 -51 4 -9 13 -34 18 -55 6 -22 17 -66
26 -99 43 -159 73 -308 83 -410 4 -38 11 -76 15 -83 5 -7 13 -63 18 -125 5
-62 13 -150 18 -197 15 -128 12 -452 -4 -655 -17 -207 -20 -1015 -5 -1132 5
-39 12 -120 14 -180 6 -114 11 -159 56 -478 6 -38 15 -83 20 -99 6 -16 10 -53
10 -82 0 -29 5 -54 11 -56 6 -2 13 -26 16 -53 3 -28 11 -64 19 -82 8 -17 14
-47 14 -66 0 -20 4 -38 9 -42 6 -3 13 -26 17 -50 3 -25 10 -48 15 -51 5 -3 9
-18 9 -33 0 -15 7 -36 15 -47 8 -10 15 -31 15 -45 0 -14 7 -34 15 -45 8 -10
15 -27 15 -37 0 -10 7 -25 15 -33 8 -9 15 -29 15 -45 0 -16 4 -29 9 -29 5 0
13 -10 16 -22 7 -24 80 -182 96 -208 5 -8 13 -24 18 -35 5 -11 21 -37 35 -58
14 -21 26 -41 26 -44 0 -3 11 -21 25 -39 14 -18 25 -36 25 -39 0 -6 55 -81 70
-95 3 -3 16 -21 29 -40 47 -65 250 -275 330 -340 24 -19 49 -40 55 -45 6 -6
28 -21 48 -35 21 -14 38 -28 38 -32 0 -5 5 -8 11 -8 6 0 28 -13 48 -29 20 -16
54 -39 76 -51 22 -12 63 -34 90 -50 58 -34 143 -74 225 -107 14 -6 46 -20 73
-32 26 -11 56 -21 67 -21 10 0 22 -4 25 -10 3 -5 16 -10 28 -10 12 0 35 -7 51
-15 15 -8 40 -15 55 -15 15 0 35 -6 46 -14 11 -8 43 -16 70 -19 48 -4 130 -17
246 -37 158 -28 444 -22 699 16 58 9 123 18 145 20 22 3 54 12 72 20 17 8 44
14 61 14 16 0 43 7 58 15 16 8 36 15 45 15 9 0 30 7 45 15 16 8 39 15 51 15
12 0 25 4 28 10 3 5 15 10 27 10 11 0 32 6 46 14 15 7 45 22 67 31 22 10 52
24 67 32 14 7 33 13 42 13 9 0 16 4 16 8 0 5 21 18 48 31 26 12 74 37 107 56
33 18 70 38 83 44 12 6 22 14 22 18 0 5 13 14 28 21 16 6 38 21 50 32 12 11
26 20 32 20 5 0 10 5 10 10 0 6 5 10 11 10 13 0 74 47 134 102 22 21 44 38 49
38 13 0 298 289 341 345 20 28 41 52 45 55 4 3 41 52 83 110 42 58 80 110 84
116 14 19 33 49 40 64 4 8 13 21 20 28 7 7 13 20 13 28 0 8 4 14 8 14 5 0 19
20 31 45 12 24 26 47 32 50 5 4 9 15 9 26 0 11 7 22 15 25 8 4 15 11 15 18 0
6 14 38 30 71 16 33 30 65 30 72 0 6 5 13 10 15 6 2 12 13 14 24 4 22 7 28 39
92 9 19 17 42 17 52 0 10 6 31 14 47 21 41 76 215 76 239 0 11 4 24 9 29 6 6
12 32 16 58 3 27 9 56 14 65 4 10 11 48 14 86 4 37 10 73 15 80 10 12 27 288
27 441 0 160 -17 419 -28 433 -5 7 -12 45 -15 85 -2 39 -8 77 -13 83 -5 5 -11
30 -14 54 -3 25 -10 58 -15 75 -29 95 -40 136 -40 152 0 11 -7 28 -15 39 -8
10 -15 31 -15 45 0 14 -7 34 -15 45 -8 10 -15 31 -15 46 0 15 -4 29 -9 33 -5
3 -13 20 -17 37 -3 18 -10 39 -15 48 -4 8 -18 38 -30 65 -12 28 -25 58 -30 67
-5 10 -9 24 -9 32 0 7 -7 19 -15 26 -8 7 -15 23 -15 35 0 12 -7 28 -15 35 -8
7 -15 19 -15 27 0 8 -7 21 -15 29 -8 9 -15 24 -15 35 0 10 -4 19 -8 19 -5 0
-19 21 -32 48 -13 26 -34 64 -47 84 -13 21 -23 44 -23 53 0 8 -4 15 -9 15 -5
0 -13 10 -17 23 -4 12 -10 24 -13 27 -4 3 -18 23 -31 45 -13 22 -26 42 -29 45
-4 3 -12 17 -20 32 -8 15 -21 36 -30 46 -19 21 -38 51 -48 72 -4 8 -12 20 -17
26 -6 6 -18 22 -26 34 -8 12 -20 28 -26 34 -5 6 -13 19 -17 29 -3 9 -11 17
-17 17 -5 0 -10 7 -10 15 0 8 -4 15 -9 15 -5 0 -12 8 -15 18 -4 9 -24 37 -46
62 -22 25 -40 48 -40 51 0 3 -15 22 -32 41 -56 61 -112 123 -153 173 -22 26
-51 58 -65 71 -14 12 -59 54 -100 92 -108 101 -146 134 -222 193 -23 18 -45
37 -48 40 -3 4 -45 36 -95 73 -49 36 -95 70 -102 76 -7 5 -16 10 -22 10 -5 0
-11 4 -13 9 -4 10 -126 94 -151 104 -9 3 -17 11 -17 17 0 5 -5 10 -11 10 -6 0
-50 24 -97 53 -48 29 -95 56 -104 60 -10 3 -18 11 -18 17 0 5 -9 10 -19 10
-11 0 -23 5 -27 11 -3 6 -25 19 -48 30 -22 10 -68 35 -101 54 -33 20 -72 41
-87 46 -16 6 -28 15 -28 20 0 5 -11 9 -25 9 -14 0 -28 7 -31 15 -4 8 -16 15
-29 15 -12 0 -28 7 -35 15 -7 8 -21 15 -31 15 -11 0 -19 4 -19 10 0 5 -12 13
-27 16 -16 4 -47 17 -69 29 -23 12 -54 25 -68 29 -14 3 -26 11 -26 16 0 6 -11
10 -24 10 -13 0 -29 7 -36 15 -7 8 -20 15 -29 15 -9 0 -25 7 -35 15 -11 8 -26
15 -33 15 -8 0 -44 14 -81 31 -114 52 -165 72 -232 94 -30 10 -64 24 -75 32
-11 7 -29 13 -40 13 -12 0 -25 4 -30 8 -6 5 -41 19 -80 32 -38 12 -74 26 -79
31 -6 5 -22 9 -37 9 -15 0 -34 7 -43 15 -8 8 -25 15 -38 15 -13 0 -33 7 -44
15 -10 8 -29 15 -40 15 -12 0 -35 7 -50 15 -16 8 -41 15 -56 15 -15 0 -29 4
-32 9 -4 5 -24 12 -46 16 -22 4 -42 11 -45 15 -3 5 -26 12 -50 16 -25 3 -48
10 -51 15 -3 5 -17 9 -32 9 -15 0 -36 6 -47 14 -11 7 -36 16 -55 19 -46 7
-121 27 -142 38 -10 5 -26 9 -35 9 -10 1 -36 8 -58 16 -22 8 -58 17 -80 20
-22 4 -45 10 -51 15 -6 5 -31 11 -55 14 -24 3 -48 10 -53 15 -6 6 -26 10 -46
10 -20 0 -45 7 -56 15 -10 8 -36 15 -56 15 -20 0 -49 5 -65 11 -15 7 -48 16
-73 20 -25 4 -76 15 -115 24 -38 9 -90 20 -115 25 -80 17 -92 21 -86 27 4 4
17 8 29 10 68 9 64 3 72 130 13 205 -7 424 -50 533 -82 212 -132 300 -240 430
-70 84 -179 185 -259 240 -28 19 -53 38 -56 41 -3 4 -50 27 -105 53 -55 26
-107 50 -115 55 -8 4 -40 15 -70 24 -146 43 -341 61 -525 47z m365 -297 c122
-35 245 -88 318 -136 193 -130 362 -353 418 -552 35 -125 45 -225 39 -355 -4
-69 -7 -140 -6 -157 1 -29 -2 -33 -23 -33 -14 0 -37 5 -53 12 -15 6 -57 15
-93 19 -36 5 -103 15 -150 24 -47 8 -123 21 -170 28 -47 7 -90 16 -95 19 -6 3
-41 9 -80 12 -38 4 -83 11 -100 16 -16 4 -67 11 -113 14 -45 3 -91 10 -103 16
-11 6 -35 10 -53 8 l-34 -3 104 -110 c57 -60 104 -113 104 -116 0 -3 18 -25
40 -50 22 -24 52 -62 68 -84 15 -22 37 -49 50 -61 12 -12 22 -26 22 -32 0 -5
7 -12 15 -16 8 -3 15 -15 15 -26 0 -11 7 -20 15 -20 8 0 15 -7 15 -15 0 -8 4
-15 9 -15 5 0 14 -13 21 -30 7 -16 16 -30 21 -30 5 0 9 -7 9 -15 0 -8 4 -15 9
-15 5 0 11 -8 15 -17 8 -25 29 -57 44 -66 6 -4 12 -13 12 -19 0 -6 7 -20 17
-30 9 -10 14 -19 12 -21 -2 -1 -42 -21 -89 -44 -169 -84 -400 -125 -564 -103
-164 22 -294 62 -386 119 -28 17 -53 31 -56 31 -3 0 -32 20 -64 45 -151 116
-281 285 -337 436 -66 179 -68 190 -67 379 0 187 7 223 68 385 124 325 462
586 811 625 98 12 300 2 365 -17z m901 -1244 c11 -21 10 -22 -31 -15 -57 9
-71 18 -40 27 44 12 59 10 71 -12z m-558 -649 c4 -17 2 -18 -14 -9 -22 11 -25
29 -5 29 7 0 16 -9 19 -20z m27 -41 c0 -6 8 -23 19 -37 23 -34 38 -77 22 -68
-6 4 -11 15 -11 25 0 10 -13 28 -30 41 -32 25 -40 50 -15 50 8 0 15 -5 15 -11z"/>
</g>
</svg>
